<svg version="1.1" xmlns="http://www.w3.org/2000/svg" xmlns:xlink="http://www.w3.org/1999/xlink" width="48" height="48"><defs><linearGradient x1="0" y1="0" x2="0" y2="0" gradientUnits="userSpaceOnUse" id="color-1"><stop offset="0" stop-color="#000000" stop-opacity="0.3"></stop><stop offset="1" stop-color="#000000" stop-opacity="0"></stop></linearGradient><filter id="dropshadow-base"><feColorMatrix type="matrix" values="0 0 0 0 0  0 0 0 0 0  0 0 0 0 0  0 0 0 .8 0"></feColorMatrix> <feOffset dx="0" dy="1"></feOffset> <feGaussianBlur stdDeviation="1"></feGaussianBlur> <feComposite in="SourceGraphic"></feComposite></filter><filter id="dropshadow-banner" x="-10%" y="-10%" width="120%" height="130%"><feColorMatrix type="matrix" values="0 0 0 0 0  0 0 0 0 0  0 0 0 0 0  0 0 0 .4 0"></feColorMatrix> <feOffset dx="0" dy="1"></feOffset> <feGaussianBlur stdDeviation="0.5"></feGaussianBlur> <feComposite in="SourceGraphic"></feComposite></filter></defs><g fill="none" fill-rule="nonzero" stroke="none" stroke-width="none" stroke-linecap="butt" stroke-linejoin="miter" stroke-miterlimit="10" stroke-dasharray="" stroke-dashoffset="0" font-family="none" font-weight="none" font-size="none" text-anchor="none" style="mix-blend-mode: normal"><path d="M2,24c0,-12.15026 9.84974,-22 22,-22c12.15026,0 22,9.84974 22,22c0,12.15026 -9.84974,22 -22,22c-12.15026,0 -22,-9.84974 -22,-22z" id="base 1 9" fill="#512da8" stroke-width="1"></path><path d="M41.51664,49.79676l-1.34579,1.11421l-21.2132,-21.2132l-4.72776,-5.69777l4.72776,-5.6934l1.34579,1.11421l3.70529,3.70529h0.86516l1.74777,1.74777v-1.74777h1.74778l21.2132,21.2132v1.74778l-1.74778,-1.74778v1.74778l-1.74777,-1.74777v1.74777h-1.74778l-1.74778,-1.74778v1.74778h-1.74778l-2.10583,-2.10583l-1.0227,1.23194zM48.90976,40.62964l3.80143,4.58356l-21.2132,-21.2132l-3.80143,-4.58356zM50.25556,39.51543l-1.34579,1.11421l-21.2132,-21.2132l1.34579,-1.11421z" fill="url(#color-1)" stroke-width="1"></path><path d="M20.30344,19.42081l-1.34579,-1.11421l-4.72775,5.6934l4.72775,5.69777l1.34579,-1.11421l-3.80143,-4.58356zM19.63054,24.87389h1.74778v-1.74778h-1.74778zM28.36946,23.12611h-1.74778v1.74778h1.74778zM23.12611,24.87389h1.74778v-1.74778h-1.74778zM29.04236,18.30223l-1.34579,1.11421l3.80143,4.58356l-3.80143,4.57919l1.34579,1.11421l4.72775,-5.6934z" fill="none" stroke-width="0"></path><path d="M16.50201,24l3.80143,4.58356l-1.34579,1.11421l-4.72775,-5.69777l4.72775,-5.6934l1.34579,1.11421zM19.63054,23.12611h1.74778v1.74778h-1.74778zM28.36946,24.87389h-1.74778v-1.74778h1.74778zM23.12611,23.12611h1.74778v1.74778h-1.74778zM33.77011,24l-4.72775,5.6934l-1.34579,-1.11421l3.80143,-4.57919l-3.80143,-4.58356l1.34579,-1.11421z" fill="#ffffff" stroke-width="0"></path><path d="M2,24c0,-12.15026 9.84974,-22 22,-22c12.15026,0 22,9.84974 22,22c0,12.15026 -9.84974,22 -22,22c-12.15026,0 -22,-9.84974 -22,-22z" id="base 1 5 1" fill="none" stroke-width="1"></path><path d="M2,24c0,-12.15026 9.84974,-22 22,-22c12.15026,0 22,9.84974 22,22c0,12.15026 -9.84974,22 -22,22c-12.15026,0 -22,-9.84974 -22,-22z" id="base 1 1 1" fill="none" stroke-width="1"></path><g fill="#000000" stroke-width="1" font-family="Roboto, sans-serif" font-weight="normal" font-size="14" text-anchor="start"></g><rect x="2" y="2" width="44" height="22" fill="none" stroke-width="1"></rect><path d="M2,24v-22h44v22z" fill="none" stroke-width="1"></path><path d="M2,24v-22h44v22z" fill="none" stroke-width="1"></path><path d="M2,24v-22h44v22z" fill="none" stroke-width="1"></path><path d="M2,24v-22h44v22z" fill="none" stroke-width="1"></path><g fill="#000000" stroke-width="1" font-family="Roboto, sans-serif" font-weight="normal" font-size="14" text-anchor="start"></g><rect x="2" y="2" width="44" height="22" fill="none" stroke-width="1"></rect><path d="M2,24v-22h44v22z" fill="none" stroke-width="1"></path><path d="M2,24v-22h44v22z" fill="none" stroke-width="1"></path><path d="M2,24v-22h44v22z" fill="none" stroke-width="1"></path><path d="M2,24v-22h44v22z" fill="none" stroke-width="1"></path></g></svg>